<?xml version="1.0" encoding="UTF-8"?>
<svg id="Art" xmlns="http://www.w3.org/2000/svg" viewBox="0 0 100 100">
  <defs>
    <style>
      .cls-1 {
        fill: #ffff35;
      }

      .cls-2 {
        fill: #fe3038;
      }

      .cls-3 {
        fill: #1873f0;
      }
    </style>
  </defs>
  <path class="cls-2" d="m95.31,23.94c5.52,9.55,5.29,20.01-.51,23.36l-4.44,2.51c0-.5-.01-.99-.03-1.49-.56-13.58-7.85-25.42-18.63-32.26-.45-.28-.9-.56-1.36-.83l4.49-2.54c5.8-3.35,14.97,1.69,20.48,11.24Z"/>
  <path class="cls-1" d="m90.36,49.81c0,.06,0,.13,0,.19,0,6.71-1.65,13.04-4.56,18.6,3.24-6.44,4.12-13.08,2.76-17.77-.34-1.18-.82-2.24-1.44-3.14h0c-.74-1.07-1.67-1.91-2.79-2.48-.92-.46-1.91-.72-2.95-.77h0c-1.09-.06-2.24.1-3.4.46-4.8,1.47-9.96,6.27-13.39,13.04-.13.25-.25.51-.37.76-1.17,2.46-2,4.93-2.49,7.31-.29,1.41-.46,2.78-.52,4.09-.08,1.97.09,3.8.52,5.41.72,2.7,2.17,4.79,4.31,5.87,4.62,2.34,11.1-.73,16.11-7.04-7.34,9.63-18.93,15.84-31.97,15.84-7.64,0-14.78-2.13-20.86-5.83l6.6-3.73c5.8-3.35,5.84-13.83.33-23.38-5.14-8.91-13.47-13.89-19.27-11.8h0s0,0,0,0c-.42.15-.82.34-1.21.56-.35.2-.67.42-.98.68l-4.78,2.7c.31-20.17,15.48-36.73,35.04-39.22-8.76,1.18-15.24,5.4-15.24,10.42,0,2.26,1.31,4.35,3.54,6.08,1.48,1.15,3.38,2.14,5.57,2.9h0c1.29.45,2.68.83,4.15,1.12,2.07.41,4.3.64,6.63.66.12,0,.24,0,.37,0,6.82,0,12.85-1.79,16.53-4.53,2.35-1.76,3.73-3.9,3.73-6.22,0-1.55-.62-3.02-1.73-4.35-3.14-3.77-10.26-6.41-18.53-6.41.04,0,.08,0,.12,0,7.35,0,14.24,1.97,20.16,5.42.46.27.91.54,1.36.83,10.78,6.85,18.07,18.69,18.63,32.26.02.49.03.99.03,1.49Z"/>
  <path class="cls-3" d="m88.57,50.83c1.36,4.69.48,11.34-2.76,17.77,0,.02-.02.03-.03.05l-.1.19c-1.02,1.92-2.2,3.76-3.51,5.48,0,.01-.02.02-.02.03-5.01,6.31-11.49,9.37-16.11,7.04-2.14-1.08-3.58-3.17-4.31-5.87.53-.01,1.48-.39,2.51-.92,1.29-.66,2-1.35,2.3-1.81-.58-.49-1.37-1.06-2.37-1.53-.53-.25-1.01-.53-1.46-.66-.5-.19-.85-.33-1.51-.48.06-1.31.23-2.68.52-4.09l11.33-6.41h0c.3-.13.6-.27.88-.44.25-.14.49-.3.72-.47,3.4-2.52,4.52-7.82,3.31-13.79,1.16-.36,2.31-.52,3.4-.46h0c1.04.05,2.03.31,2.95.77,1.12.57,2.05,1.41,2.79,2.48h0c.62.9,1.1,1.96,1.44,3.14Z"/>
  <path class="cls-2" d="m77.98,44.9c1.21,5.97.1,11.27-3.31,13.79l-1.6.9h0s-11.33,6.42-11.33,6.42c.49-2.38,1.32-4.85,2.49-7.31.12-.25.24-.51.37-.76,3.42-6.77,8.59-11.58,13.39-13.04Z"/>
  <path class="cls-3" d="m68.59,16.23c1.11,1.33,1.73,2.8,1.73,4.35,0,2.32-1.38,4.47-3.73,6.22-4.42-3.24-9.16-4.29-12.65-2.28h-.02s-10.86,6.15-10.86,6.15c-1.47-.29-2.86-.66-4.15-1.11h0c.11-.49.03-2.21,0-3-.06-1.03-.33-1.85-.56-2.37-.45-.03-1.17.12-2.19.63-.77.38-2.54,1.51-2.81,1.84-2.23-1.73-3.54-3.82-3.54-6.08,0-5.02,6.48-9.24,15.24-10.42.11-.02.23-.03.34-.04.15-.02.3-.04.46-.05.03,0,.06,0,.09-.01.18-.02.36-.04.54-.06.12-.01.24-.02.36-.03.11-.01.23-.02.35-.03.14,0,.28-.02.42-.03.17-.01.34-.02.51-.03.17,0,.34-.02.51-.02.15,0,.3-.01.44-.02.12,0,.24,0,.36,0,.05,0,.1,0,.14,0,.16,0,.32,0,.49,0,8.27,0,15.39,2.63,18.53,6.41Z"/>
  <path class="cls-2" d="m66.59,26.79c-3.67,2.74-9.7,4.53-16.53,4.53-.12,0-.24,0-.37,0-2.33-.02-4.56-.25-6.63-.66l10.86-6.14h.02c3.49-2.02,8.23-.97,12.65,2.27Z"/>
  <path class="cls-2" d="m36.24,57.24c5.52,9.56,5.47,20.03-.33,23.38l-6.6,3.73-4.15,2.35c-5.8,3.35-14.97-1.69-20.48-11.24-5.52-9.55-5.29-20.01.51-23.36l4.81-2.72,4.78-2.7,2.19-1.24h0c5.8-2.09,14.13,2.89,19.27,11.8Z"/>
</svg>